<?xml version="1.0" encoding="iso-8859-1"?>
<!-- Generator: Adobe Illustrator 16.0.0, SVG Export Plug-In . SVG Version: 6.00 Build 0)  -->
<!DOCTYPE svg PUBLIC "-//W3C//DTD SVG 1.1//EN" "http://www.w3.org/Graphics/SVG/1.1/DTD/svg11.dtd">
<svg version="1.1" id="Capa_1" xmlns="http://www.w3.org/2000/svg" xmlns:xlink="http://www.w3.org/1999/xlink" x="0px" y="0px"
	 width="31.969px" height="31.969px" viewBox="0 0 31.969 31.969" style="enable-background:new 0 0 31.969 31.969;"
	 xml:space="preserve">
<g>
	<g>
		<path d="M14.057,0.831c-1.071,0-1.939,0.867-1.939,1.938v16.093c0,1.07,0.868,1.938,1.939,1.938h7.981
			c-0.004,2.988-0.614,5.041-1.866,6.271c-1.851,1.82-5.031,1.76-8.397,1.707c-0.582-0.01-1.165-0.02-1.738-0.02
			c-4.794,0-4.974-4.73-4.974-5.264v-3.688c1.585-0.643,2.735-2.561,2.735-4.827c0-2.794-1.745-5.058-3.898-5.058
			C1.746,9.923,0,12.187,0,14.981c0,2.235,1.119,4.129,2.671,4.797v3.718c0,2.629,1.556,7.603,7.338,7.603
			c0.561,0,1.157,0.012,1.725,0.02c0.587,0.011,1.177,0.02,1.764,0.02c3.118,0,6.168-0.285,8.314-2.395
			c1.722-1.692,2.559-4.289,2.566-7.939h5.651c1.071,0,1.938-0.867,1.938-1.939V2.769c0-1.071-0.867-1.938-1.938-1.938H14.057z
			 M22.393,17.79c-3.862,0-6.992-3.129-6.992-6.991c0-3.86,3.13-6.992,6.992-6.992c3.861,0,6.99,3.132,6.99,6.992
			C29.385,14.661,26.254,17.79,22.393,17.79z"/>
		<path d="M22.418,5.561c-2.902,0-5.263,2.36-5.263,5.263c0,2.903,2.36,5.265,5.263,5.265s5.264-2.361,5.264-5.265
			C27.682,7.921,25.32,5.561,22.418,5.561z M22.418,14.852c-2.221,0-4.029-1.806-4.029-4.028c0-2.222,1.809-4.027,4.029-4.027
			s4.029,1.806,4.029,4.027C26.447,13.046,24.639,14.852,22.418,14.852z"/>
		<circle cx="24.73" cy="8.491" r="0.328"/>
		<path d="M19.875,12.885c-0.129,0.125-0.129,0.333,0,0.463c0.127,0.129,0.334,0.129,0.463,0c0.129-0.13,0.129-0.338,0.002-0.463
			C20.209,12.756,20.002,12.756,19.875,12.885z"/>
		<circle cx="25.688" cy="10.804" r="0.328"/>
		<circle cx="19.148" cy="10.804" r="0.328"/>
		<path d="M24.498,12.885c-0.129,0.125-0.128,0.333,0,0.463c0.128,0.129,0.336,0.129,0.465,0c0.127-0.13,0.127-0.338,0-0.463
			C24.834,12.756,24.626,12.756,24.498,12.885z"/>
		<circle cx="20.105" cy="8.491" r="0.328"/>
		<path d="M22.881,10.027V8.823c0-0.23-0.188-0.416-0.418-0.416c-0.229,0-0.418,0.187-0.418,0.416v1.2
			c-0.359,0.148-0.51,0.452-0.51,0.801c0,0.498,0.395,0.902,0.893,0.902s0.918-0.404,0.918-0.902
			C23.346,10.477,23.121,10.177,22.881,10.027z"/>
		<circle cx="22.418" cy="7.533" r="0.328"/>
		<circle cx="22.418" cy="14.073" r="0.329"/>
	</g>
</g>
<g>
</g>
<g>
</g>
<g>
</g>
<g>
</g>
<g>
</g>
<g>
</g>
<g>
</g>
<g>
</g>
<g>
</g>
<g>
</g>
<g>
</g>
<g>
</g>
<g>
</g>
<g>
</g>
<g>
</g>
</svg>
