<?xml version="1.0" standalone="no"?>
<!DOCTYPE svg PUBLIC "-//W3C//DTD SVG 20010904//EN"
 "http://www.w3.org/TR/2001/REC-SVG-20010904/DTD/svg10.dtd">
<svg version="1.0" xmlns="http://www.w3.org/2000/svg"
 width="512.000000pt" height="512.000000pt" viewBox="0 0 512.000000 512.000000"
 preserveAspectRatio="xMidYMid meet">

<g transform="translate(0.000000,512.000000) scale(0.100000,-0.100000)"
fill="#000000" stroke="none">
<path d="M1505 5103 c-290 -62 -519 -294 -579 -585 -14 -68 -16 -242 -16
-1498 0 -1551 -2 -1495 57 -1635 75 -178 230 -333 409 -408 112 -48 190 -57
474 -57 l260 0 0 -460 0 -460 450 0 450 0 0 460 0 460 260 0 c343 0 426 16
585 115 121 75 231 201 291 334 62 139 58 24 62 1616 2 1298 1 1458 -13 1529
-60 297 -291 529 -587 590 -112 23 -1994 23 -2103 -1z m2047 -294 c171 -36
310 -175 347 -347 16 -74 16 -2808 0 -2884 -27 -127 -119 -248 -235 -306 -91
-45 -142 -52 -409 -52 l-245 0 0 150 0 150 150 0 150 0 0 150 0 150 -750 0
-750 0 0 -150 0 -150 150 0 150 0 0 -150 0 -150 -245 0 c-144 0 -266 5 -297
11 -172 37 -310 175 -347 347 -16 74 -16 2808 0 2884 18 87 58 158 123 223 64
64 127 100 211 121 68 17 1917 20 1997 3z m-842 -3589 l0 -300 -150 0 -150 0
0 300 0 300 150 0 150 0 0 -300z m0 -760 l0 -160 -150 0 -150 0 0 160 0 160
150 0 150 0 0 -160z"/>
<path d="M1510 3320 l0 -1200 1050 0 1050 0 0 1200 0 1200 -1050 0 -1050 0 0
-1200z m1800 0 l0 -900 -750 0 -750 0 0 900 0 900 750 0 750 0 0 -900z"/>
<path d="M2433 3847 c-208 -311 -323 -550 -323 -671 0 -121 48 -235 135 -321
172 -173 440 -178 621 -13 85 78 144 214 144 332 0 82 -58 235 -154 406 -51
91 -287 450 -296 450 -3 0 -60 -82 -127 -183z m205 -498 c35 -68 66 -143 69
-165 11 -82 -63 -164 -148 -164 -71 0 -149 76 -149 145 0 54 130 320 153 312
6 -2 40 -59 75 -128z"/>
</g>
</svg>
